<svg width="144" height="36" viewBox="0 0 144 36" fill="none" xmlns="http://www.w3.org/2000/svg">
  <path
    d="M111.618 2.73207L126.331 17.9903C121.514 22.847 116.438 27.9516 111.618 32.8372C109.299 32.8119 106.315 32.8887 103.998 32.8372C108.782 27.7506 113.872 22.9442 118.79 17.9903C116.695 15.8983 103.782 2.73207 103.782 2.73207H111.618Z"
    fill="#646770" />
  <path
    d="M144 2.73207C144 2.73207 132.924 14.1564 129.14 17.9903C133.937 22.8226 143.556 32.7998 143.556 32.7998H135.72C135.72 32.7998 128.501 25.5015 124.926 21.8797C124.926 21.8797 127.995 18.6443 128.622 17.9903C127.959 17.3066 124.926 14.101 124.926 14.101C124.926 14.101 134.158 4.79102 136.163 2.73208L144 2.73207Z"
    fill="#F05236" />
  <path
    d="M37.1103 10.5654C37.1103 10.5654 29.2692 10.514 27.9286 10.5108L27.9286 5.12552C33.4374 5.09611 53.0651 5.12553 53.0651 5.12553V10.5108C48.4099 10.4976 43.7498 10.5654 43.7498 10.5654C43.7498 10.5654 43.7637 22.5153 43.7498 30.8661C42.3028 30.8825 37.096 30.8551 37.096 30.8551C37.096 30.8551 37.1031 15.052 37.1103 10.5654Z"
    fill="#646770" />
  <path
    d="M80.4019 11.6237C81.9157 13.0513 86.6357 17.8228 86.6357 17.8228C86.6357 17.8228 91.7191 12.6866 92.7659 11.6237C92.7659 11.6237 97.2027 11.6156 99.124 11.6237L90.0307 21.1138L99.2719 30.6876H92.692L86.6357 24.6411C86.6357 24.6411 81.5909 29.5006 80.4196 30.6876C78.6187 30.6926 75.7116 30.6985 73.9137 30.6876C76.9399 27.6269 80.3428 24.1295 83.3029 21.1138L74.1355 11.6148L80.4019 11.6237Z"
    fill="#646770" />
  <path
    d="M72.6568 27.2649C72.6496 27.3319 72.4557 27.5192 72.4557 27.5192C71.8435 28.0877 71.2521 28.5364 70.5586 29.0047C65.7073 32.2801 54.8586 31.2949 53.3209 23.3771C51.9177 16.1548 57.1668 11.4248 64.0468 11.6447C68.8035 11.7958 72.6538 14.5782 73.368 19.5236C73.5336 20.6725 73.6179 21.8049 73.4493 23.045C73.4432 23.0653 73.4305 23.0831 73.4129 23.0957C73.3953 23.1084 73.3739 23.1152 73.3517 23.1153C67.2243 23.0973 63.4997 23.2305 58.604 23.1183C58.5931 23.118 58.5824 23.1203 58.5726 23.1251C58.5628 23.1299 58.5543 23.137 58.5478 23.1458C58.5413 23.1546 58.537 23.1648 58.5351 23.1756C58.5333 23.1865 58.5341 23.1976 58.5374 23.208C59.2028 25.3801 60.986 26.2672 63.1685 26.6037C64.8408 26.861 66.6684 26.2492 68.1381 25.4609C68.3983 25.3213 68.8124 25.1707 69.6256 24.5723C69.7188 24.49 69.9834 24.3075 69.9834 24.3075C69.9834 24.3075 72.0526 26.5115 72.6568 27.2649ZM60.2955 16.6111C59.6899 17.0556 58.34 18.4425 58.3676 19.278C58.3686 19.3076 58.377 19.3363 58.3922 19.3616C58.4073 19.3868 58.4287 19.4077 58.4541 19.4222C58.4795 19.4367 58.5082 19.4443 58.5374 19.4443C61.8052 19.4513 65.07 19.4593 68.3318 19.4683C68.6645 19.4683 68.6324 19.3128 68.5625 19.0105C68.2712 17.748 67.1578 16.7038 66.0666 16.1264C64.2286 15.1541 61.9767 15.383 60.2955 16.6111Z"
    fill="#646770" />
  <path
    d="M10.5486 5.25368L5.36686 0.0113917C5.35184 -0.00379722 5.3275 -0.00379722 5.31249 0.0113917L0.116155 5.26849C0.101142 5.28367 0.101142 5.3083 0.116155 5.32349L5.29785 10.5658C5.31286 10.581 5.33721 10.581 5.35222 10.5658L10.5486 5.30868C10.5636 5.29349 10.5636 5.26887 10.5486 5.25368Z"
    fill="#F05236" />
  <path
    d="M11.4786 6.41823L6.44746 11.5082C6.38625 11.5701 6.38625 11.6705 6.44746 11.7324L11.4765 16.8203C11.5377 16.8822 11.637 16.8822 11.6982 16.8203L16.7293 11.7303C16.7905 11.6684 16.7905 11.568 16.7293 11.5061L11.7003 6.41823C11.639 6.3563 11.5398 6.3563 11.4786 6.41823Z"
    fill="#F05236" />
  <path
    d="M5.28148 12.6998L0.120695 17.9209C0.0958657 17.946 0.0958657 17.9867 0.120695 18.0119L5.28148 23.233C5.30631 23.2581 5.34657 23.2581 5.3714 23.233L10.5322 18.0119C10.557 17.9867 10.557 17.946 10.5322 17.9209L5.3714 12.6998C5.34657 12.6747 5.30631 12.6747 5.28148 12.6998Z"
    fill="#F05236" />
  <path
    d="M22.9715 17.8152L17.9923 12.7954C17.9119 12.7143 17.7818 12.7145 17.7016 12.7959L12.7523 17.8205C12.6722 17.9019 12.6724 18.0335 12.7529 18.1146L17.732 23.1344C17.8124 23.2155 17.9426 23.2153 18.0227 23.1339L22.972 18.1092C23.0521 18.0279 23.0519 17.8962 22.9715 17.8152Z"
    fill="#F05236" />
  <path
    d="M11.5729 19.0362L6.36335 24.2884C6.34773 24.3041 6.34768 24.3297 6.36325 24.3455L11.5651 29.6266C11.5807 29.6424 11.606 29.6424 11.6216 29.6267L16.8312 24.3746C16.8468 24.3588 16.8468 24.3332 16.8313 24.3174L11.6294 19.0363C11.6138 19.0205 11.5885 19.0205 11.5729 19.0362Z"
    fill="#F05236" />
  <path
    d="M10.544 30.6427L5.29542 25.3327C5.28041 25.3175 5.25606 25.3175 5.24105 25.3327L0.0112601 30.6236C-0.00375315 30.6388 -0.00375348 30.6634 0.0112599 30.6786L5.25987 35.9886C5.27488 36.0038 5.29923 36.0038 5.31424 35.9886L10.544 30.6977C10.559 30.6825 10.559 30.6579 10.544 30.6427Z"
    fill="#F05236" />
</svg>