<svg width="618" height="250" viewBox="0 0 618 250" fill="none" xmlns="http://www.w3.org/2000/svg">
<path d="M59.781 241.36V193.895H72.4341C78.6641 193.895 82.1325 194.601 85.0872 196.4C88.7482 198.648 90.8681 203.015 90.8681 208.347C90.8681 213.421 88.8768 217.66 85.4724 219.908C82.6467 221.835 79.3064 222.541 72.9478 222.541H65.883V241.36H59.781ZM65.883 216.889H72.6267C78.6641 216.889 84.7021 215.926 84.7021 208.411C84.7021 199.74 78.0219 199.548 71.4067 199.548H65.883V216.889ZM95.0386 223.761C95.0386 213.164 103.131 205.264 113.858 205.264C124.198 205.264 132.099 213.292 132.099 223.826C132.099 234.231 124.198 242.195 113.858 242.195C103.26 242.195 95.0386 234.167 95.0386 223.761ZM113.794 236.672C120.795 236.672 126.061 231.212 126.061 223.826C126.061 216.311 120.73 210.788 113.473 210.788C106.471 210.788 101.141 216.439 101.141 223.761C101.141 231.148 106.6 236.672 113.794 236.672ZM149.077 208.283V208.09L144.196 206.42C140.085 204.943 138.094 202.502 138.094 198.841C138.094 194.537 141.691 191.39 146.508 191.39H172.264V196.721H146.508C144.966 196.721 144.003 197.685 144.003 199.162C144.003 200.446 144.517 201.025 146.251 201.731L161.602 207.768C169.951 211.173 173.998 216.632 173.998 224.404C173.998 234.488 166.162 242.195 155.757 242.195C145.095 242.195 136.938 234.488 136.938 224.34C136.938 216.375 141.498 210.402 149.077 208.283ZM143.04 224.404C143.04 231.405 148.435 236.672 155.693 236.672C162.694 236.672 167.961 231.469 167.961 224.468C167.961 217.339 162.501 212.008 155.308 212.008C148.371 212.008 143.04 217.403 143.04 224.404ZM178.837 223.761C178.837 213.164 186.93 205.264 197.656 205.264C207.997 205.264 215.897 213.292 215.897 223.826C215.897 234.231 207.997 242.195 197.656 242.195C187.058 242.195 178.837 234.167 178.837 223.761ZM197.592 236.672C204.593 236.672 209.86 231.212 209.86 223.826C209.86 216.311 204.529 210.788 197.271 210.788C190.27 210.788 184.939 216.439 184.939 223.761C184.939 231.148 190.398 236.672 197.592 236.672ZM228.187 241.36V211.558H219.259V206.099H243.024V211.558H234.225V241.36H228.187ZM247.805 241.36V206.099H253.778V232.818L273.368 206.099H279.406V241.36H273.432V214.577L253.842 241.36H247.805ZM285.334 230.827H291.372C291.629 234.231 294.647 236.672 298.565 236.672C302.547 236.672 305.759 234.103 305.759 230.827C305.759 227.102 302.355 225.11 295.932 225.11V220.615C301.391 220.615 304.218 218.88 304.218 215.412C304.218 212.843 301.648 210.788 298.501 210.788C295.418 210.788 293.106 212.714 292.785 215.412H286.876C287.197 209.567 292.207 205.199 298.565 205.199C305.052 205.199 310.191 209.76 310.191 215.412C310.191 218.752 308.264 221.385 305.116 222.349V222.605C309.292 223.697 311.861 226.781 311.861 230.827C311.861 237.121 305.952 242.195 298.565 242.195C291.436 242.195 285.655 237.25 285.334 230.827ZM316.39 223.826C316.39 213.164 324.226 205.264 334.759 205.264C340.604 205.264 344.587 207.255 347.926 211.815V206.099H353.707V241.36H347.926V235.708C344.265 240.333 340.604 242.195 334.952 242.195C324.29 242.195 316.39 234.424 316.39 223.826ZM322.492 223.761C322.492 231.084 328.079 236.672 335.337 236.672C342.467 236.672 347.798 231.148 347.798 223.697C347.798 216.247 342.403 210.788 335.016 210.788C328.015 210.788 322.492 216.504 322.492 223.761ZM361.397 241.36V206.099H367.434V235.901H385.611V206.099H391.585V235.901H397.686V249.582H393.447L391.713 241.36H361.397ZM402.167 241.36V206.099H408.141V232.818L427.731 206.099H433.768V241.36H427.795V214.577L408.205 241.36H402.167ZM460.378 222.349V211.558H453.056C448.496 211.558 445.991 213.421 445.991 216.953C445.991 220.421 448.496 222.349 453.056 222.349H460.378ZM438.412 241.36L448.175 227.294C443.101 225.881 439.89 221.899 439.89 216.953C439.89 210.594 444.964 206.099 452.093 206.099H466.416V241.36H460.378V227.808H454.533L445.413 241.36H438.412Z" fill="black"/>
<path d="M461.61 101.389H432.146C418.846 101.389 405.811 97.7589 394.476 90.863L367.508 74.4959L394.476 58.1282C405.811 51.2326 418.846 47.6021 432.146 47.6021H461.569L439.082 25.2922H432.146C414.692 25.2922 397.607 30.0584 382.711 39.104L345.962 61.414L307.679 38.1913L307.167 37.9074C291.801 29.6528 274.449 25.2922 256.975 25.2922H0V47.6021H59.8497V123.963H82.3571V47.6021H256.975C270.623 47.6021 284.169 50.9689 296.2 57.3779L324.416 74.5158L296.384 91.5325C284.23 97.9819 270.541 101.389 256.771 101.389H158.576V93.6618C158.576 89.4027 162.075 85.9348 166.372 85.9348H229.925V63.6247H166.372C149.655 63.6247 136.069 77.0917 136.069 93.6618V123.7H256.771C274.367 123.7 291.862 119.319 307.351 111.003L345.942 87.5777L382.711 109.908C397.607 118.933 414.692 123.7 432.146 123.7H439.082L461.61 101.389Z" fill="black"/>
<path d="M568.891 48.677L617.979 0H582.639L533.94 48.2917C538.751 53.2809 545.174 55.7759 551.602 55.7759C558.024 55.7759 564.101 53.4231 568.891 48.677Z" fill="#FDE100"/>
<path d="M467.667 0H432.35L501.92 68.9795C505.01 72.0418 505.01 76.9909 501.92 80.0532L432.35 148.992H467.667L522.177 95.0015C533.593 83.6838 533.593 65.3489 522.177 54.0317L467.667 0Z" fill="black"/>
<path d="M568.561 100.011C558.927 90.438 543.169 90.7622 533.94 100.721L582.639 148.992H618L568.561 100.011Z" fill="black"/>
</svg>
