<svg xmlns="http://www.w3.org/2000/svg" xmlns:xlink="http://www.w3.org/1999/xlink" version="1.1" width="256" height="256" viewBox="0 0 256 256" xml:space="preserve">
<g style="stroke: none; stroke-width: 0; stroke-dasharray: none; stroke-linecap: butt; stroke-linejoin: miter; stroke-miterlimit: 10; fill: rgb(255,255,255); fill-rule: nonzero; opacity: 1;" transform="translate(0 0) scale(2.81 2.81)">
	<path d="M 71.326 90 H 18.674 C 8.361 90 0 81.639 0 71.326 V 18.674 C 0 8.361 8.361 0 18.674 0 h 52.652 C 81.639 0 90 8.361 90 18.674 v 52.652 C 90 81.639 81.639 90 71.326 90 z" style="stroke: none; stroke-width: 1; stroke-dasharray: none; stroke-linecap: butt; stroke-linejoin: miter; stroke-miterlimit: 10; fill: rgb(255,255,255); fill-rule: nonzero; opacity: 1;" transform=" matrix(1 0 0 1 0 0) " stroke-linecap="round"/>
</g>
<g style="stroke: none; stroke-width: 0; stroke-dasharray: none; stroke-linecap: butt; stroke-linejoin: miter; stroke-miterlimit: 10; fill: none; fill-rule: nonzero; opacity: 1;" transform="translate(46.17984832069338 46.17984832069338) scale(1.82 1.82)">
	<rect x="49.29" y="53.91" rx="0" ry="0" width="30.51" height="28" style="stroke: none; stroke-width: 1; stroke-dasharray: none; stroke-linecap: butt; stroke-linejoin: miter; stroke-miterlimit: 10; fill: rgb(232,182,101); fill-rule: nonzero; opacity: 1;" transform=" matrix(1 0 0 1 0 0) "/>
	<polygon points="71.55,67.91 64.55,61.91 57.55,67.91 57.55,53.91 71.55,53.91 " style="stroke: none; stroke-width: 1; stroke-dasharray: none; stroke-linecap: butt; stroke-linejoin: miter; stroke-miterlimit: 10; fill: rgb(240,134,48); fill-rule: nonzero; opacity: 1;" transform="  matrix(1 0 0 1 0 0) "/>
	<path d="M 36.681 89 H 1.088 v -5.725 c 0 -3.78 3.064 -6.844 6.844 -6.844 h 21.905 c 3.78 0 6.844 3.064 6.844 6.844 V 89 z" style="stroke: none; stroke-width: 1; stroke-dasharray: none; stroke-linecap: butt; stroke-linejoin: miter; stroke-miterlimit: 10; fill: rgb(255,255,0); fill-rule: nonzero; opacity: 1;" transform=" matrix(1 0 0 1 0 0) " stroke-linecap="round"/>
	<circle cx="13.889000000000001" cy="42.039" r="9.659" style="stroke: none; stroke-width: 1; stroke-dasharray: none; stroke-linecap: butt; stroke-linejoin: miter; stroke-miterlimit: 10; fill: rgb(255,255,0); fill-rule: nonzero; opacity: 1;" transform="  matrix(1 0 0 1 0 0) "/>
	<circle cx="42.299" cy="10.659" r="9.659" style="stroke: none; stroke-width: 1; stroke-dasharray: none; stroke-linecap: butt; stroke-linejoin: miter; stroke-miterlimit: 10; fill: rgb(255,255,0); fill-rule: nonzero; opacity: 1;" transform="  matrix(1 0 0 1 0 0) "/>
	<polygon points="20.17,49.38 25.17,76.43 12.6,76.43 7.6,49.37 " style="stroke: none; stroke-width: 1; stroke-dasharray: none; stroke-linecap: butt; stroke-linejoin: miter; stroke-miterlimit: 10; fill: rgb(255,255,0); fill-rule: nonzero; opacity: 1;" transform="  matrix(1 0 0 1 0 0) "/>
	<polyline points="41.99,20.32 23.54,40.52 13.88,32.38 32.64,11.92 51.92,9.87 66.82,32.38 58.05,36.23 41.99,20.32 " style="stroke: none; stroke-width: 1; stroke-dasharray: none; stroke-linecap: butt; stroke-linejoin: miter; stroke-miterlimit: 10; fill: rgb(255,255,0); fill-rule: nonzero; opacity: 1;" transform="  matrix(1 0 0 1 0 0) "/>
	<path d="M 79.806 63.182 c 5.021 0 9.106 -4.086 9.106 -9.107 v -3.431 c 0 -5.021 -4.085 -9.106 -9.106 -9.106 H 49.293 c -5.021 0 -9.107 4.085 -9.107 9.106 v 3.431 c 0 5.021 4.086 9.107 9.107 9.107 v -5 c -2.265 0 -4.107 -1.843 -4.107 -4.107 v -3.431 c 0 -2.264 1.843 -4.106 4.107 -4.106 h 30.513 c 2.265 0 4.106 1.842 4.106 4.106 v 3.431 c 0 2.265 -1.842 4.107 -4.106 4.107 V 63.182 z" style="stroke: none; stroke-width: 1; stroke-dasharray: none; stroke-linecap: butt; stroke-linejoin: miter; stroke-miterlimit: 10; fill: rgb(255,255,255); fill-rule: nonzero; opacity: 1;" transform=" matrix(1 0 0 1 0 0) " stroke-linecap="round"/>
	<path d="M 64.549 31.97 L 64.549 31.97 c -3.591 0 -6.502 2.911 -6.502 6.502 v 3.065 h 13.005 v -3.065 C 71.052 34.882 68.14 31.97 64.549 31.97 z" style="stroke: none; stroke-width: 1; stroke-dasharray: none; stroke-linecap: butt; stroke-linejoin: miter; stroke-miterlimit: 10; fill: rgb(255,255,255); fill-rule: nonzero; opacity: 1;" transform=" matrix(1 0 0 1 0 0) " stroke-linecap="round"/>
	<path d="M 71.052 42.538 H 58.047 c -0.553 0 -1 -0.448 -1 -1 v -3.065 c 0 -4.137 3.365 -7.502 7.502 -7.502 s 7.503 3.366 7.503 7.502 v 3.065 C 72.052 42.09 71.604 42.538 71.052 42.538 z M 59.047 40.538 h 11.005 v -2.065 c 0 -3.034 -2.469 -5.502 -5.503 -5.502 s -5.502 2.468 -5.502 5.502 V 40.538 z" style="stroke: none; stroke-width: 1; stroke-dasharray: none; stroke-linecap: butt; stroke-linejoin: miter; stroke-miterlimit: 10; fill: rgb(0,0,0); fill-rule: nonzero; opacity: 1;" transform=" matrix(1 0 0 1 0 0) " stroke-linecap="round"/>
	<path d="M 79.806 64.183 h -1 v -7 h 1 c 1.713 0 3.106 -1.394 3.106 -3.107 v -3.431 c 0 -1.713 -1.394 -3.106 -3.106 -3.106 H 49.293 c -1.714 0 -3.107 1.394 -3.107 3.106 v 3.431 c 0 1.714 1.394 3.107 3.107 3.107 h 1 v 7 h -1 c -5.573 0 -10.107 -4.534 -10.107 -10.107 v -3.431 c 0 -5.573 4.534 -10.106 10.107 -10.106 h 30.513 c 5.572 0 10.106 4.534 10.106 10.106 v 3.431 C 89.912 59.648 85.378 64.183 79.806 64.183 z M 49.293 42.538 c -4.47 0 -8.107 3.637 -8.107 8.106 v 3.431 c 0 4.132 3.107 7.552 7.107 8.046 v -3.037 c -2.339 -0.466 -4.107 -2.534 -4.107 -5.009 v -3.431 c 0 -2.815 2.291 -5.106 5.107 -5.106 h 30.513 c 2.815 0 5.106 2.291 5.106 5.106 v 3.431 c 0 2.474 -1.768 4.543 -4.106 5.009 v 3.037 c 4 -0.494 7.106 -3.914 7.106 -8.046 v -3.431 c 0 -4.47 -3.637 -8.106 -8.106 -8.106 H 49.293 z" style="stroke: none; stroke-width: 1; stroke-dasharray: none; stroke-linecap: butt; stroke-linejoin: miter; stroke-miterlimit: 10; fill: rgb(0,0,0); fill-rule: nonzero; opacity: 1;" transform=" matrix(1 0 0 1 0 0) " stroke-linecap="round"/>
	<path d="M 36.682 90 H 1.088 c -0.552 0 -1 -0.447 -1 -1 v -5.726 c 0 -4.325 3.519 -7.844 7.844 -7.844 h 21.905 c 4.326 0 7.845 3.519 7.845 7.844 V 89 C 37.682 89.553 37.234 90 36.682 90 z M 2.088 88 h 33.594 v -4.726 c 0 -3.223 -2.622 -5.844 -5.845 -5.844 H 7.932 c -3.223 0 -5.844 2.621 -5.844 5.844 V 88 z" style="stroke: none; stroke-width: 1; stroke-dasharray: none; stroke-linecap: butt; stroke-linejoin: miter; stroke-miterlimit: 10; fill: rgb(0,0,0); fill-rule: nonzero; opacity: 1;" transform=" matrix(1 0 0 1 0 0) " stroke-linecap="round"/>
	<path d="M 25.169 77.431 H 12.6 c -0.482 0 -0.896 -0.344 -0.983 -0.818 l -5 -27.057 c -0.1 -0.543 0.259 -1.064 0.802 -1.165 c 0.545 -0.107 1.064 0.259 1.165 0.802 l 4.849 26.238 h 10.536 l -4.782 -25.873 c -0.1 -0.543 0.259 -1.064 0.802 -1.165 c 0.542 -0.105 1.064 0.259 1.165 0.802 l 5 27.055 c 0.054 0.292 -0.025 0.593 -0.215 0.821 S 25.466 77.431 25.169 77.431 z" style="stroke: none; stroke-width: 1; stroke-dasharray: none; stroke-linecap: butt; stroke-linejoin: miter; stroke-miterlimit: 10; fill: rgb(0,0,0); fill-rule: nonzero; opacity: 1;" transform=" matrix(1 0 0 1 0 0) " stroke-linecap="round"/>
	<path d="M 13.885 52.703 c -5.878 0 -10.66 -4.782 -10.66 -10.66 c 0 -5.878 4.782 -10.66 10.66 -10.66 c 5.877 0 10.659 4.782 10.659 10.66 C 24.544 47.921 19.762 52.703 13.885 52.703 z M 13.885 33.384 c -4.775 0 -8.66 3.885 -8.66 8.66 s 3.885 8.66 8.66 8.66 s 8.659 -3.885 8.659 -8.66 S 18.66 33.384 13.885 33.384 z" style="stroke: none; stroke-width: 1; stroke-dasharray: none; stroke-linecap: butt; stroke-linejoin: miter; stroke-miterlimit: 10; fill: rgb(0,0,0); fill-rule: nonzero; opacity: 1;" transform=" matrix(1 0 0 1 0 0) " stroke-linecap="round"/>
	<circle cx="13.88" cy="42.04" r="2" style="stroke: none; stroke-width: 1; stroke-dasharray: none; stroke-linecap: butt; stroke-linejoin: miter; stroke-miterlimit: 10; fill: rgb(0,0,0); fill-rule: nonzero; opacity: 1;" transform="  matrix(1 0 0 1 0 0) "/>
	<path d="M 23.543 41.525 c -0.241 0 -0.482 -0.086 -0.674 -0.261 c -0.408 -0.373 -0.437 -1.005 -0.064 -1.413 l 18.444 -20.207 c 0.373 -0.407 1.004 -0.436 1.413 -0.064 c 0.408 0.373 0.437 1.005 0.064 1.413 L 24.283 41.2 C 24.085 41.416 23.815 41.525 23.543 41.525 z" style="stroke: none; stroke-width: 1; stroke-dasharray: none; stroke-linecap: butt; stroke-linejoin: miter; stroke-miterlimit: 10; fill: rgb(0,0,0); fill-rule: nonzero; opacity: 1;" transform=" matrix(1 0 0 1 0 0) " stroke-linecap="round"/>
	<path d="M 13.884 33.384 c -0.241 0 -0.483 -0.087 -0.675 -0.263 c -0.407 -0.373 -0.435 -1.006 -0.062 -1.413 l 18.751 -20.46 c 0.373 -0.406 1.005 -0.434 1.413 -0.062 c 0.407 0.373 0.435 1.006 0.062 1.413 L 14.622 33.06 C 14.425 33.274 14.155 33.384 13.884 33.384 z" style="stroke: none; stroke-width: 1; stroke-dasharray: none; stroke-linecap: butt; stroke-linejoin: miter; stroke-miterlimit: 10; fill: rgb(0,0,0); fill-rule: nonzero; opacity: 1;" transform=" matrix(1 0 0 1 0 0) " stroke-linecap="round"/>
	<path d="M 42.295 21.319 c -5.877 0 -10.659 -4.782 -10.659 -10.66 C 31.636 4.782 36.418 0 42.295 0 s 10.66 4.782 10.66 10.659 C 52.955 16.537 48.173 21.319 42.295 21.319 z M 42.295 2 c -4.775 0 -8.659 3.884 -8.659 8.659 s 3.884 8.66 8.659 8.66 s 8.66 -3.885 8.66 -8.66 S 47.07 2 42.295 2 z" style="stroke: none; stroke-width: 1; stroke-dasharray: none; stroke-linecap: butt; stroke-linejoin: miter; stroke-miterlimit: 10; fill: rgb(0,0,0); fill-rule: nonzero; opacity: 1;" transform=" matrix(1 0 0 1 0 0) " stroke-linecap="round"/>
	<circle cx="42.3" cy="10.66" r="2" style="stroke: none; stroke-width: 1; stroke-dasharray: none; stroke-linecap: butt; stroke-linejoin: miter; stroke-miterlimit: 10; fill: rgb(0,0,0); fill-rule: nonzero; opacity: 1;" transform="  matrix(1 0 0 1 0 0) "/>
	<path d="M 66.817 33.384 c -0.324 0 -0.643 -0.157 -0.835 -0.448 L 51.086 10.418 c -0.305 -0.46 -0.179 -1.081 0.282 -1.386 c 0.46 -0.305 1.081 -0.18 1.386 0.282 L 67.65 31.832 c 0.305 0.46 0.179 1.081 -0.282 1.386 C 67.198 33.33 67.007 33.384 66.817 33.384 z" style="stroke: none; stroke-width: 1; stroke-dasharray: none; stroke-linecap: butt; stroke-linejoin: miter; stroke-miterlimit: 10; fill: rgb(0,0,0); fill-rule: nonzero; opacity: 1;" transform=" matrix(1 0 0 1 0 0) " stroke-linecap="round"/>
	<path d="M 58.047 37.227 c -0.254 0 -0.509 -0.096 -0.704 -0.29 L 41.284 21.029 c -0.393 -0.389 -0.396 -1.022 -0.007 -1.414 c 0.388 -0.394 1.021 -0.396 1.414 -0.007 l 16.06 15.908 c 0.392 0.389 0.395 1.022 0.006 1.414 C 58.562 37.128 58.305 37.227 58.047 37.227 z" style="stroke: none; stroke-width: 1; stroke-dasharray: none; stroke-linecap: butt; stroke-linejoin: miter; stroke-miterlimit: 10; fill: rgb(0,0,0); fill-rule: nonzero; opacity: 1;" transform=" matrix(1 0 0 1 0 0) " stroke-linecap="round"/>
	<path d="M 23.543 32.368 c -0.241 0 -0.482 -0.086 -0.674 -0.261 c -0.408 -0.373 -0.437 -1.005 -0.064 -1.413 l 8.898 -9.749 c 0.373 -0.408 1.005 -0.437 1.413 -0.064 c 0.408 0.373 0.437 1.005 0.064 1.413 l -8.898 9.749 C 24.085 32.258 23.815 32.368 23.543 32.368 z" style="stroke: none; stroke-width: 1; stroke-dasharray: none; stroke-linecap: butt; stroke-linejoin: miter; stroke-miterlimit: 10; fill: rgb(0,0,0); fill-rule: nonzero; opacity: 1;" transform=" matrix(1 0 0 1 0 0) " stroke-linecap="round"/>
	<path d="M 9.903 83.715 h -2.26 c -0.552 0 -1 -0.447 -1 -1 s 0.448 -1 1 -1 h 2.26 c 0.552 0 1 0.447 1 1 S 10.456 83.715 9.903 83.715 z" style="stroke: none; stroke-width: 1; stroke-dasharray: none; stroke-linecap: butt; stroke-linejoin: miter; stroke-miterlimit: 10; fill: rgb(0,0,0); fill-rule: nonzero; opacity: 1;" transform=" matrix(1 0 0 1 0 0) " stroke-linecap="round"/>
	<path d="M 30.126 83.715 H 18.688 c -0.552 0 -1 -0.447 -1 -1 s 0.448 -1 1 -1 h 11.438 c 0.552 0 1 0.447 1 1 S 30.678 83.715 30.126 83.715 z" style="stroke: none; stroke-width: 1; stroke-dasharray: none; stroke-linecap: butt; stroke-linejoin: miter; stroke-miterlimit: 10; fill: rgb(0,0,0); fill-rule: nonzero; opacity: 1;" transform=" matrix(1 0 0 1 0 0) " stroke-linecap="round"/>
	<path d="M 57.135 28.63 c -0.271 0 -0.541 -0.11 -0.738 -0.326 l -4.449 -4.875 c -0.373 -0.408 -0.344 -1.041 0.064 -1.413 c 0.408 -0.371 1.04 -0.342 1.412 0.064 l 4.449 4.875 c 0.373 0.408 0.344 1.041 -0.064 1.413 C 57.617 28.544 57.376 28.63 57.135 28.63 z" style="stroke: none; stroke-width: 1; stroke-dasharray: none; stroke-linecap: butt; stroke-linejoin: miter; stroke-miterlimit: 10; fill: rgb(0,0,0); fill-rule: nonzero; opacity: 1;" transform=" matrix(1 0 0 1 0 0) " stroke-linecap="round"/>
	<path d="M 17.829 72.032 c -0.473 0 -0.894 -0.337 -0.982 -0.818 L 14.396 57.95 c -0.1 -0.543 0.259 -1.064 0.802 -1.165 c 0.543 -0.105 1.065 0.259 1.165 0.802 l 2.451 13.264 c 0.1 0.543 -0.259 1.064 -0.802 1.165 C 17.95 72.027 17.889 72.032 17.829 72.032 z" style="stroke: none; stroke-width: 1; stroke-dasharray: none; stroke-linecap: butt; stroke-linejoin: miter; stroke-miterlimit: 10; fill: rgb(0,0,0); fill-rule: nonzero; opacity: 1;" transform=" matrix(1 0 0 1 0 0) " stroke-linecap="round"/>
	<path d="M 79.806 82.913 H 49.293 c -0.553 0 -1 -0.447 -1 -1 v -28 c 0 -0.553 0.447 -1 1 -1 h 30.513 c 0.553 0 1 0.447 1 1 v 28 C 80.806 82.466 80.358 82.913 79.806 82.913 z M 50.293 80.913 h 28.513 v -26 H 50.293 V 80.913 z" style="stroke: none; stroke-width: 1; stroke-dasharray: none; stroke-linecap: butt; stroke-linejoin: miter; stroke-miterlimit: 10; fill: rgb(0,0,0); fill-rule: nonzero; opacity: 1;" transform=" matrix(1 0 0 1 0 0) " stroke-linecap="round"/>
	<path d="M 71.549 68.913 c -0.234 0 -0.466 -0.082 -0.65 -0.241 L 64.55 63.23 l -6.351 5.442 c -0.297 0.254 -0.713 0.313 -1.068 0.148 c -0.354 -0.163 -0.582 -0.518 -0.582 -0.908 v -14 c 0 -0.553 0.447 -1 1 -1 h 14 c 0.553 0 1 0.447 1 1 v 14 c 0 0.391 -0.228 0.745 -0.582 0.908 C 71.833 68.883 71.69 68.913 71.549 68.913 z M 58.549 54.913 v 10.826 l 5.351 -4.586 c 0.373 -0.32 0.928 -0.321 1.301 0.001 l 5.349 4.584 V 54.913 H 58.549 z" style="stroke: none; stroke-width: 1; stroke-dasharray: none; stroke-linecap: butt; stroke-linejoin: miter; stroke-miterlimit: 10; fill: rgb(0,0,0); fill-rule: nonzero; opacity: 1;" transform=" matrix(1 0 0 1 0 0) " stroke-linecap="round"/>
</g>
</svg>